<?xml version="1.0" standalone="no"?>
<!DOCTYPE svg PUBLIC "-//W3C//DTD SVG 20010904//EN"
 "http://www.w3.org/TR/2001/REC-SVG-20010904/DTD/svg10.dtd">
<svg version="1.0" xmlns="http://www.w3.org/2000/svg"
 width="244.000000pt" height="428.000000pt" viewBox="0 0 244.000000 428.000000"
 preserveAspectRatio="xMidYMid meet">

<g transform="translate(0.000000,428.000000) scale(0.100000,-0.100000)"
fill="#ACDEFF" stroke="none">
<path d="M943 3645 c-45 -19 -92 -88 -182 -265 -43 -85 -102 -195 -130 -244
-150 -256 -235 -499 -317 -900 -13 -65 -24 -123 -24 -128 0 -5 21 17 46 49
100 125 215 229 330 298 89 54 88 55 82 -92 l-5 -128 86 -40 c75 -35 102 -56
221 -170 75 -71 157 -141 184 -155 l48 -25 -4 -70 c-8 -125 -67 -220 -186
-298 -85 -55 -184 -95 -278 -110 l-73 -11 -6 -61 c-8 -71 6 -159 34 -212 11
-21 60 -85 111 -143 104 -120 194 -250 250 -359 42 -84 78 -123 129 -140 72
-24 154 -1 202 57 55 64 100 331 100 592 1 405 -82 764 -282 1217 l-23 52 29
53 c15 29 32 59 38 66 13 16 75 15 199 -3 113 -17 236 -21 288 -10 90 19 194
104 230 186 26 62 41 146 33 194 -5 31 -13 40 -57 62 -81 41 -162 98 -286 203
-187 157 -270 209 -423 262 -37 12 -65 28 -63 33 31 66 78 191 79 213 2 25 -1
27 -48 34 -93 12 -298 8 -332 -7z"/>
</g>
</svg>
